<?xml version="1.0" encoding="UTF-8" standalone="no"?>
<!DOCTYPE svg PUBLIC "-//W3C//DTD SVG 1.1//EN" "http://www.w3.org/Graphics/SVG/1.1/DTD/svg11.dtd">
<svg width="100%" height="100%" viewBox="0 0 40 40" version="1.1" xmlns="http://www.w3.org/2000/svg" xmlns:xlink="http://www.w3.org/1999/xlink" xml:space="preserve" xmlns:serif="http://www.serif.com/" style="fill-rule:evenodd;clip-rule:evenodd;stroke-linejoin:round;stroke-miterlimit:2;">
    <g transform="matrix(1,0,0,1,-4,-4)">
        <path d="M24,44C21.233,44 18.633,43.475 16.2,42.425C13.767,41.375 11.65,39.95 9.85,38.15C8.05,36.35 6.625,34.233 5.575,31.8C4.525,29.367 4,26.767 4,24C4,21.233 4.525,18.633 5.575,16.2C6.625,13.767 8.05,11.65 9.85,9.85C11.65,8.05 13.767,6.625 16.2,5.575C18.633,4.525 21.233,4 24,4C26.767,4 29.367,4.525 31.8,5.575C34.233,6.625 36.35,8.05 38.15,9.85C39.95,11.65 41.375,13.767 42.425,16.2C43.475,18.633 44,21.233 44,24L44,26.65C44,28.517 43.342,30.092 42.025,31.375C40.708,32.658 39.1,33.3 37.2,33.3C36,33.3 34.867,33.008 33.8,32.425C32.733,31.842 31.917,31.017 31.35,29.95C30.483,31.083 29.4,31.925 28.1,32.475C26.8,33.025 25.433,33.3 24,33.3C21.4,33.3 19.192,32.4 17.375,30.6C15.558,28.8 14.65,26.6 14.65,24C14.65,21.4 15.558,19.183 17.375,17.35C19.192,15.517 21.4,14.6 24,14.6C26.6,14.6 28.808,15.517 30.625,17.35C32.442,19.183 33.35,21.4 33.35,24L33.35,26.65C33.35,27.683 33.725,28.55 34.475,29.25C35.225,29.95 36.133,30.3 37.2,30.3C38.233,30.3 39.125,29.95 39.875,29.25C40.625,28.55 41,27.683 41,26.65L41,24C41,19.267 39.35,15.25 36.05,11.95C32.75,8.65 28.733,7 24,7C19.267,7 15.25,8.65 11.95,11.95C8.65,15.25 7,19.267 7,24C7,28.733 8.65,32.75 11.95,36.05C15.25,39.35 19.267,41 24,41L34.7,41L34.7,44L24,44ZM24,30.3C25.767,30.3 27.267,29.692 28.5,28.475C29.733,27.258 30.35,25.767 30.35,24C30.35,22.2 29.733,20.683 28.5,19.45C27.267,18.217 25.767,17.6 24,17.6C22.233,17.6 20.733,18.217 19.5,19.45C18.267,20.683 17.65,22.2 17.65,24C17.65,25.767 18.267,27.258 19.5,28.475C20.733,29.692 22.233,30.3 24,30.3Z" style="fill-rule:nonzero;"/>
    </g>
</svg>
