<?xml version="1.0" encoding="UTF-8" standalone="no"?>
<!DOCTYPE svg PUBLIC "-//W3C//DTD SVG 1.1//EN" "http://www.w3.org/Graphics/SVG/1.1/DTD/svg11.dtd">
<svg width="100%" height="100%" viewBox="0 0 40 32" version="1.1" xmlns="http://www.w3.org/2000/svg" xmlns:xlink="http://www.w3.org/1999/xlink" xml:space="preserve" xmlns:serif="http://www.serif.com/" style="fill-rule:evenodd;clip-rule:evenodd;stroke-linejoin:round;stroke-miterlimit:2;">
    <g transform="matrix(1,0,0,1,-4,-8)">
        <path d="M7,40C6.2,40 5.5,39.7 4.9,39.1C4.3,38.5 4,37.8 4,37L4,11C4,10.2 4.3,9.5 4.9,8.9C5.5,8.3 6.2,8 7,8L41,8C41.8,8 42.5,8.3 43.1,8.9C43.7,9.5 44,10.2 44,11L44,37C44,37.8 43.7,38.5 43.1,39.1C42.5,39.7 41.8,40 41,40L7,40ZM24,24.9L7,13.75L7,37L41,37L41,13.75L24,24.9ZM24,21.9L40.8,11L7.25,11L24,21.9ZM7,37L7,11L7,37Z" style="fill-rule:nonzero;"/>
    </g>
</svg>
